<?xml version="1.0" encoding="UTF-8"?>
<svg width="30px" height="41px" viewBox="0 0 30 41" version="1.1" xmlns="http://www.w3.org/2000/svg"
     xmlns:xlink="http://www.w3.org/1999/xlink">
  <!-- Generator: Sketch 53.1 (72631) - https://sketchapp.com -->
  <title>Group 16</title>
  <desc>Created with Sketch.</desc>
  <defs>
    <path
      d="M6.79289322,6 L4.14644661,8.64644661 C3.95118446,8.84170876 3.95118446,9.15829124 4.14644661,9.35355339 C4.34170876,9.54881554 4.65829124,9.54881554 4.85355339,9.35355339 L7.85355339,6.35355339 C8.04881554,6.15829124 8.04881554,5.84170876 7.85355339,5.64644661 L4.85355339,2.64644661 C4.65829124,2.45118446 4.34170876,2.45118446 4.14644661,2.64644661 C3.95118446,2.84170876 3.95118446,3.15829124 4.14644661,3.35355339 L6.79289322,6 Z"
      id="path-1"></path>
  </defs>
  <g id="Page-1" stroke="none" stroke-width="1" fill="none" fill-rule="evenodd">
    <g id="01-Playground--ContractEditor" transform="translate(-730.000000, -962.000000)">
      <g id="Group-13" transform="translate(72.000000, 940.000000)">
        <g id="Group-6" transform="translate(20.000000, 15.000000)">
          <g id="Group-16" transform="translate(638.000000, 7.500000)">
            <path d="M0.5,6.9388939e-17 L0.5,40" id="Line-6" stroke="#343746" stroke-linecap="square"></path>
            <g id="atoms/icons/ui/left-more"
               transform="translate(26.000000, 21.500000) rotate(90.000000) translate(-26.000000, -21.500000) translate(20.000000, 15.500000)">
              <mask id="mask-2" fill="white">
                <use xlink:href="#path-1"></use>
              </mask>
              <use id="Shape" fill="#000000" fill-rule="nonzero" xlink:href="#path-1"></use>
              <g id="fill/neutral/+3" mask="url(#mask-2)" fill="#F7FAFC" fill-rule="evenodd">
                <rect id="Rectangle-Copy-20" x="0" y="0" width="12" height="12"></rect>
              </g>
            </g>
          </g>
        </g>
      </g>
    </g>
  </g>
</svg>
