<?xml version="1.0" encoding="UTF-8"?>
<svg width="48px" height="48px" viewBox="0 0 48 48" version="1.1" xmlns="http://www.w3.org/2000/svg" xmlns:xlink="http://www.w3.org/1999/xlink">
    <!-- Generator: Sketch 53 (72520) - https://sketchapp.com -->
    <title>Group 11</title>
    <desc>Created with Sketch.</desc>
    <g id="FBMVP" stroke="none" stroke-width="1" fill="none" fill-rule="evenodd">
        <g id="Fucking-Basic-MVP-01" transform="translate(-14.000000, -13.000000)">
            <g id="Group-11" transform="translate(14.000000, 13.000000)">
                <circle id="Oval" fill="#FF0D6A" cx="24" cy="24" r="24"></circle>
                <g id="Group-4" transform="translate(7.000000, 15.000000)" fill="#FFFFFF">
                    <g id="Group-10" transform="translate(0.055392, 0.691196)">
                        <path d="M25.3340445,0 C22.1153441,0 19.9091424,2.0953622 18.0024,4.69144299 L19.1322954,6.41108339 C20.8790506,3.92155058 22.735402,1.9628071 25.3340445,1.9628071 C28.3189653,1.9628071 30.8010691,4.2171379 31.2594236,7.15797575 L23.8495406,7.15797575 L23.8495406,9.12086411 L33.1776327,9.12086411 C33.2153088,8.79902584 33.2352,8.47157978 33.2352,8.13941993 C33.2352,3.65132021 29.6907528,0 25.3340445,0" id="SHAPE"></path>
                        <path d="M17.1133882,7.19727656 C14.4294549,3.03815367 11.8960578,0 7.96662203,0 C3.57378014,0 0,3.61950439 0,8.068497 C0,12.517409 3.57378014,16.1369134 7.96662203,16.1369134 C11.2062181,16.1369134 13.4286329,14.0669794 15.3487955,11.4998036 L14.2178862,9.78419058 C12.4571473,12.2509029 10.5858264,14.1911287 7.96662203,14.1911287 C4.62965722,14.1911287 1.91489305,11.4445366 1.91489305,8.068497 C1.91489305,4.69245739 4.62965722,1.94570415 7.96662203,1.94570415 C11.1708255,1.94570415 13.1710539,4.6360625 15.9631311,8.93278892 C18.7552083,13.2295153 21.1863603,16.1369134 25.1158747,16.1369134 C28.4928724,16.1369134 31.3854643,13.9976137 32.5428,10.9870935 L30.4345851,10.9870935 C29.4081231,12.8940463 27.4089172,14.1911287 25.1158747,14.1911287 C21.9115925,14.1911287 19.7973216,11.3563995 17.1133882,7.19727656 Z" id="SHAPE"></path>
                    </g>
                </g>
            </g>
        </g>
    </g>
</svg>