<svg width="48" height="23" xmlns="http://www.w3.org/2000/svg"><g fill="#FF0D6A" fill-rule="evenodd"><path d="M36.346 0c-4.748 0-8.002 3.02-10.814 6.76l1.666 2.478c2.577-3.587 5.315-6.41 9.148-6.41 4.403 0 8.064 3.249 8.74 7.486h-10.93v2.829h13.76c.055-.464.084-.936.084-1.414C48 5.26 42.772 0 36.346 0"/><path d="M24.705 10.258C20.83 4.33 17.173 0 11.5 0 5.159 0 0 5.159 0 11.5S5.16 23 11.5 23c4.677 0 7.886-2.95 10.657-6.61l-1.632-2.445c-2.542 3.516-5.243 6.282-9.024 6.282-4.818 0-8.737-3.915-8.737-8.727s3.92-8.727 8.737-8.727c4.625 0 7.513 3.835 11.543 9.959C27.075 18.856 30.584 23 36.257 23c4.875 0 9.051-3.05 10.722-7.34h-3.044a8.745 8.745 0 0 1-7.678 4.567c-4.625 0-7.678-4.04-11.552-9.969z"/></g></svg>